<svg xmlns="http://www.w3.org/2000/svg" width="837" height="805" viewBox="0 0 837 805">
  <g id="Grupo_185" data-name="Grupo 185" transform="translate(-96 -691)">
    <rect id="closeup-shot-newlyweds-holding-hands-showing-wedding-rings" width="837" height="805" transform="translate(96 691)" fill="#fff"/>
    <g id="Grupo_184" data-name="Grupo 184" transform="translate(-102.746 454.712)">
      <g id="Grupo_179" data-name="Grupo 179" transform="translate(375.547 317.438)">
        <path id="Trazado_17" data-name="Trazado 17" d="M346.832,347.011,343.542,357l-28.789-9.484-2.974,9.028-8.168-2.694,9.227-28.007,8.164,2.69-2.963,9Z" transform="translate(-303.611 -176.702)" fill="#3a3535"/>
        <path id="Trazado_18" data-name="Trazado 18" d="M309.236,331.886a4.39,4.39,0,0,1-2.593-2.667,8.236,8.236,0,0,1,3.628-7.615,4.342,4.342,0,0,1,3.694.273q4.14,1.956,1.764,6.984Q313.376,333.842,309.236,331.886Zm38.607,6.439-4.446,9.41-27.263-12.882,4.446-9.41Z" transform="translate(-295.225 -189.817)" fill="#3a3535"/>
        <path id="Trazado_19" data-name="Trazado 19" d="M341.962,338.419q-4.053,6.348-9.666,7.708T320.441,343.5q-6.435-4.105-7.81-9.557t2.484-11.484q3.661-5.746,8.658-6.965t10.62,2.375l3.9,2.492-10.005,15.681a5.141,5.141,0,0,0,4.337.572,7.262,7.262,0,0,0,3.769-3.231,23.053,23.053,0,0,0,2.274-4.531,25.015,25.015,0,0,0,1.191-5.158l6.3,4.022a18.249,18.249,0,0,1-1.261,5.193A34.915,34.915,0,0,1,341.962,338.419Zm-20.68-12.466a4.327,4.327,0,0,0-.677,3.212,5.463,5.463,0,0,0,2.285,3.181L327.7,324.8a5.208,5.208,0,0,0-3.6-.833A4.1,4.1,0,0,0,321.282,325.953Z" transform="translate(-278.548 -207.519)" fill="#3a3535"/>
        <path id="Trazado_20" data-name="Trazado 20" d="M364.052,329.308,352.427,317.75a9.878,9.878,0,0,0-3.846-2.643,2.8,2.8,0,0,0-2.951.8,3.718,3.718,0,0,0-1.024,3.936,13.968,13.968,0,0,0,3.757,5.314l9.962,9.912-7.358,7.393L339.346,330.9a10.278,10.278,0,0,0-3.815-2.675,2.716,2.716,0,0,0-2.912.751,3.753,3.753,0,0,0-.965,4.064q.759,2.336,4.267,5.824l9.359,9.312-7.339,7.377-21.377-21.264,5.536-5.567,3.562,1.705.436-.44a7.8,7.8,0,0,1,.2-4.7,11.816,11.816,0,0,1,2.881-4.434q4.6-4.625,9.269-3.7l.58-.584a8.562,8.562,0,0,1,.436-4.574,11.862,11.862,0,0,1,2.8-4.294q3.778-3.8,7.517-3.675t7.708,4.064l13.9,13.836Z" transform="translate(-266.137 -239.799)" fill="#3a3535"/>
        <path id="Trazado_21" data-name="Trazado 21" d="M359.466,326.443a9.387,9.387,0,0,1-8.362,1.211l-.4.257a38.432,38.432,0,0,1,2.526,3.056l6.529,10.2-8.767,5.61-23.308-36.423,7.124-4.559,3.3,2.437.4-.261a9.116,9.116,0,0,1,4.4-8,9.02,9.02,0,0,1,8.849-.732q4.637,1.962,8.541,8.059,3.924,6.143,3.691,11.27A9.367,9.367,0,0,1,359.466,326.443ZM344.1,308.909a3.359,3.359,0,0,0-1.814,3.107,10.647,10.647,0,0,0,1.779,4.633l.444.693a11.348,11.348,0,0,0,3.9,4.169,3.533,3.533,0,0,0,3.687-.3,3.055,3.055,0,0,0,1.518-3.013,13.005,13.005,0,0,0-2.3-5.271,12.493,12.493,0,0,0-3.768-4.208A3.141,3.141,0,0,0,344.1,308.909Z" transform="translate(-233.969 -256.045)" fill="#3a3535"/>
        <path id="Trazado_22" data-name="Trazado 22" d="M366.326,304.393q2.873,6.821.8,12.174t-8.662,8.133q-6.33,2.657-11.71.331t-8.175-8.974q-2.856-6.8-.771-12.107t8.713-8.09a15.9,15.9,0,0,1,7.965-1.3,12.883,12.883,0,0,1,6.949,2.959A17.449,17.449,0,0,1,366.326,304.393Zm-18.005,7.568a13.444,13.444,0,0,0,3.251,5.057,3.612,3.612,0,0,0,4.006.526,3.512,3.512,0,0,0,2.363-3.2,13.873,13.873,0,0,0-1.374-5.844,13.144,13.144,0,0,0-3.192-4.979,4.006,4.006,0,0,0-6.357,2.655A12.844,12.844,0,0,0,348.321,311.961Z" transform="translate(-207.217 -267.441)" fill="#3a3535"/>
        <path id="Trazado_23" data-name="Trazado 23" d="M371.893,310.576a8.584,8.584,0,0,1-1.46,7.891q-2.622,3.194-8.611,4.66a41.664,41.664,0,0,1-5.75,1.043,24.83,24.83,0,0,1-5.224-.078L348.866,316a31.247,31.247,0,0,0,5.571.444,22.252,22.252,0,0,0,5.166-.557q3.288-.806,2.916-2.3a1.752,1.752,0,0,0-1.257-1.16,44.264,44.264,0,0,0-5.914-1.051,13.684,13.684,0,0,1-6.56-2.379,8.821,8.821,0,0,1-2.912-4.944,7.62,7.62,0,0,1,1.592-7.132q2.6-3.048,8.362-4.461a22.952,22.952,0,0,1,5.594-.7,33.52,33.52,0,0,1,5.742.549l-1.145,7.186a32.376,32.376,0,0,0-4.644-.494,14.673,14.673,0,0,0-3.823.273c-1.655.4-2.379,1.008-2.184,1.818a1.562,1.562,0,0,0,1.18,1.071,48.528,48.528,0,0,0,5.532.93,19.8,19.8,0,0,1,5.2,1.359,7.637,7.637,0,0,1,2.924,2.3A10.42,10.42,0,0,1,371.893,310.576Z" transform="translate(-182.142 -275.309)" fill="#3a3535"/>
        <path id="Trazado_24" data-name="Trazado 24" d="M368.014,329.772a9.036,9.036,0,0,1-5.661-1.744,11.667,11.667,0,0,1-3.811-5.341,24.049,24.049,0,0,1-1.452-8.308q-.123-7.346,2.768-11.543a9.418,9.418,0,0,1,8.047-4.286,9.289,9.289,0,0,1,4.446.942,9.753,9.753,0,0,1,3.527,3.348l.214,0a49.2,49.2,0,0,1-.619-7.07l-.132-8.063,10.484-.171.674,41.406-7.852.125-2.3-3.768-.4.008A8.825,8.825,0,0,1,368.014,329.772Zm4.123-8.292a3.9,3.9,0,0,0,3.5-1.627,9.481,9.481,0,0,0,1.024-4.863l-.012-.825q-.064-3.994-1.238-5.66a4.03,4.03,0,0,0-3.62-1.631,3.516,3.516,0,0,0-3.146,1.982,10.923,10.923,0,0,0-1.043,5.513,10.184,10.184,0,0,0,1.234,5.33A3.638,3.638,0,0,0,372.136,321.479Z" transform="translate(-148.909 -287.532)" fill="#3a3535"/>
        <path id="Trazado_25" data-name="Trazado 25" d="M379.867,322.221q-7.44-1.139-10.951-5.731t-2.386-11.9q1.156-7.551,5.594-11t11.512-2.367q6.733,1.034,9.861,5.112T395.614,307l-.7,4.578-18.383-2.822a5.139,5.139,0,0,0,1.222,4.2,7.25,7.25,0,0,0,4.477,2.145,23.011,23.011,0,0,0,5.065.253,25.459,25.459,0,0,0,5.2-.993l-1.137,7.389a18.063,18.063,0,0,1-5.256.942A34.8,34.8,0,0,1,379.867,322.221Zm3.06-23.95a4.331,4.331,0,0,0-3.212.677,5.43,5.43,0,0,0-1.985,3.371l8.837,1.359a5.219,5.219,0,0,0-.693-3.636A4.1,4.1,0,0,0,382.927,298.271Z" transform="translate(-122.372 -277.623)" fill="#3a3535"/>
        <path id="Trazado_26" data-name="Trazado 26" d="M388.689,325.019q-6.967-2.861-9.3-8.141t.467-12.131q2.89-7.066,8.012-9.39t11.745.4q6.3,2.575,8.393,7.276t-.444,10.873l-1.752,4.29-17.215-7.05a5.145,5.145,0,0,0,.21,4.368,7.2,7.2,0,0,0,3.85,3.13,22.951,22.951,0,0,0,4.862,1.433,25.214,25.214,0,0,0,5.287.253l-2.83,6.922a18.426,18.426,0,0,1-5.333-.315A35.414,35.414,0,0,1,388.689,325.019Zm8.58-22.572a4.349,4.349,0,0,0-3.282-.1,5.442,5.442,0,0,0-2.717,2.815l8.273,3.387a5.187,5.187,0,0,0,.175-3.694A4.083,4.083,0,0,0,397.269,302.447Z" transform="translate(-87.475 -267.978)" fill="#3a3535"/>
        <path id="Trazado_27" data-name="Trazado 27" d="M401.281,332.946l8.751-13.925a9.427,9.427,0,0,0,1.678-4.3,2.96,2.96,0,0,0-1.538-2.776,4.027,4.027,0,0,0-4.341-.245q-2.114,1.156-4.831,5.481l-7.019,11.177-8.814-5.532,16.043-25.531,6.645,4.173-.876,3.85.518.327a8.244,8.244,0,0,1,4.824-.744,13.1,13.1,0,0,1,5.151,1.982q4.228,2.663,5.045,6.595t-1.993,8.4l-10.437,16.608Z" transform="translate(-67.662 -259.293)" fill="#3a3535"/>
        <path id="Trazado_28" data-name="Trazado 28" d="M405.781,330.534a15.356,15.356,0,0,0,4.485,2.5l-4.952,5.742a20.262,20.262,0,0,1-3.877-1.639,22.964,22.964,0,0,1-3.628-2.616q-3.971-3.428-4.045-6.883t3.4-7.49l8.117-9.41-2.76-2.383,2.764-3.2,5.645.545,6.171-3.04,5.158,4.45-3.948,4.578,5.606,4.827-5.092,5.906-5.6-4.831-7.666,8.888C404.282,327.953,404.352,329.308,405.781,330.534Z" transform="translate(-42.801 -243.766)" fill="#3a3535"/>
        <path id="Trazado_29" data-name="Trazado 29" d="M432.254,320.875a15.006,15.006,0,0,1,1.577,2.059l.315.506-7.907,5.9A15.381,15.381,0,0,0,424.1,326.5q-2.289-2.529-4.477-2.628a6.1,6.1,0,0,0-4.36,1.861L404.27,335.68l-6.98-7.712,22.358-20.232,5.2,5.742-2.484,4.438.339.374a10.41,10.41,0,0,1,5.31.1A8.684,8.684,0,0,1,432.254,320.875Z" transform="translate(-32.593 -229.081)" fill="#3a3535"/>
        <path id="Trazado_30" data-name="Trazado 30" d="M405.921,339.509q-4.2-6.254-3.188-11.944t7.144-9.814q6.342-4.251,11.886-3.329t9.534,6.871q3.79,5.653,2.916,10.718t-6.431,8.787l-3.842,2.581-10.367-15.444a5.149,5.149,0,0,0-2.262,3.741,7.247,7.247,0,0,0,1.456,4.746,22.928,22.928,0,0,0,3.239,3.9,25.171,25.171,0,0,0,4.251,3.157l-6.209,4.166a18.513,18.513,0,0,1-4.255-3.231A35.082,35.082,0,0,1,405.921,339.509Zm19.7-13.961a4.313,4.313,0,0,0-2.675-1.908,5.439,5.439,0,0,0-3.823.821l4.983,7.424a5.228,5.228,0,0,0,2.207-2.974A4.092,4.092,0,0,0,425.624,325.549Z" transform="translate(-17.414 -210.213)" fill="#3a3535"/>
        <path id="Trazado_31" data-name="Trazado 31" d="M452.516,345.493l-4.578,2.091-3.091-3.126a7.377,7.377,0,0,1-2.916,2.262,9.05,9.05,0,0,1-8.3.019q-3.866-2-6.677-8.175a12.851,12.851,0,0,1-.907-2.507,2.737,2.737,0,0,0-1.343.2c-.467.214-.658.759-.561,1.627a10.84,10.84,0,0,0,.981,3.153l2.075,4.555q4.2,9.226-3.574,12.765a9.683,9.683,0,0,1-9.744-.72q-4.736-3.013-8.249-10.733-2.663-5.84-2.149-9.884a6.831,6.831,0,0,1,4.166-5.715q4.923-2.243,9.125,3.212a6.131,6.131,0,0,1,.72-2.978,4.2,4.2,0,0,1,1.927-2,4.137,4.137,0,0,1,2.585-.331,11.51,11.51,0,0,1,3.671,1.865,8.04,8.04,0,0,1,1.425-4.7,10.136,10.136,0,0,1,4.337-3.449,9.28,9.28,0,0,1,8.343-.117q3.86,1.927,6.439,7.6c.23.5.565,1.394,1.012,2.671s.751,2.231.919,2.854Zm-40.277-6.63a2.338,2.338,0,0,0-1.3,2.114,7.455,7.455,0,0,0,.818,3.691,16.011,16.011,0,0,0,3.371,5.119q1.8,1.682,3.161,1.063a1.763,1.763,0,0,0,.962-1.962,12.46,12.46,0,0,0-1.2-3.811l-1.69-3.706a4.9,4.9,0,0,0-1.888-2.25A2.287,2.287,0,0,0,412.238,338.863Zm23.23-6.98q-4.216,1.915-2.885,4.847a2.655,2.655,0,0,0,2,1.624,5.967,5.967,0,0,0,3.461-.681q4.263-1.945,2.97-4.777Q439.681,329.963,435.468,331.883Z" transform="translate(-14.902 -188.178)" fill="#3a3535"/>
        <path id="Trazado_32" data-name="Trazado 32" d="M413.529,355.283l3.34-2.963-.055-.206a11.8,11.8,0,0,1-4.555-3.212,14.217,14.217,0,0,1-2.387-5.205,8.824,8.824,0,0,1,.732-7.136q1.828-3.025,6.307-4.228,4.648-1.244,7.794,1.382t5.073,8.7l1.46,4.82.409-.113q3.6-.964,2.647-4.512a22.017,22.017,0,0,0-4.329-7.517l5.851-4.683q3.988,4.386,6.069,12.15,1.5,5.6-.452,9.417a10.284,10.284,0,0,1-6.937,5.158l-19.1,5.119Zm4.586-9.219a4.684,4.684,0,0,0,1.989,2.811,3.973,3.973,0,0,0,3.36.495l2.262-.607L425,346.477q-1.507-4.917-4.979-3.983Q417.35,343.212,418.115,346.064Z" transform="translate(2.611 -163.495)" fill="#3a3535"/>
      </g>
      <g id="Grupo_180" data-name="Grupo 180" transform="translate(477.743 718.636)">
        <path id="Trazado_33" data-name="Trazado 33" d="M360.722,441.465l1.658-9-13.894-6.525-5.929,7-12.7-5.96,34.123-36.388,15.413,7.241L373.355,447.4Zm3.71-19.605,1.452-7.883q.455-2.64,1.281-6.789t1.285-5.894q-.964,1.367-3.344,4.426t-9.772,11.866Z" transform="translate(-329.862 -390.587)" fill="#3a3535"/>
        <path id="Trazado_34" data-name="Trazado 34" d="M388.466,448.884l-16.46-3.056-10.9-35.871-.284-.054q-.829,7.837-1.584,11.9l-3.881,20.941-11.126-2.067,8.619-46.452,16.4,3.04,10.916,35.419.191.035q.853-7.107,1.647-11.364l3.9-21,11.185,2.075Z" transform="translate(-288.286 -380.062)" fill="#3a3535"/>
        <path id="Trazado_35" data-name="Trazado 35" d="M400.93,417.026q.818,11.8-5.244,18.632T377.864,443.3l-15.249,1.051-3.251-47.133,16.316-1.125q11.346-.783,17.92,4.594T400.93,417.026Zm-13.19,1.363q-.444-6.476-3.224-9.433t-8-2.589l-3.71.257,1.822,26.4,2.838-.195q5.8-.4,8.28-3.959T387.741,418.388Z" transform="translate(-244.511 -374.946)" fill="#3a3535"/>
        <path id="Trazado_36" data-name="Trazado 36" d="M410.767,438.644l-26.975,7.685-12.944-45.44,26.975-7.685,2.807,9.853-14.7,4.189,2.032,7.144,13.614-3.877,2.807,9.857-13.614,3.877,2.445,8.576,14.7-4.185Z" transform="translate(-211.287 -383.016)" fill="#3a3535"/>
        <path id="Trazado_37" data-name="Trazado 37" d="M400.092,439.216,379,396.938l11.422-5.7,16.487,33.048,16.281-8.117,4.6,9.227Z" transform="translate(-187.695 -388.692)" fill="#3a3535"/>
      </g>
      <g id="Grupo_183" data-name="Grupo 183" transform="translate(278.746 277.195)">
        <g id="Grupo_182" data-name="Grupo 182">
          <g id="Grupo_181" data-name="Grupo 181">
            <path id="Trazado_38" data-name="Trazado 38" d="M691.819,390.824l-97.793,56.449V413.4H424.615c.273-3.192,0-1.829,0-5.1,0-6.579.973-11.174,0-17.48l-9.923-26.084H594.026V334.375Z" transform="translate(11.709 -111.77)" fill="#fcc62b"/>
            <path id="Trazado_39" data-name="Trazado 39" d="M837.7,359.665H851.9C833.8,499,714.32,606.952,570.122,606.952c-143.611,0-262.66-106.981-281.546-245.5h14.443c18.729,130.768,131.235,231.325,267.223,231.325C706.811,592.781,819.709,491.367,837.7,359.665Z" transform="translate(-250.307 -38.605)" fill="#3a3535"/>
            <path id="Trazado_40" data-name="Trazado 40" d="M848.638,510.661H834.316c-23.709-124.889-133.458-219.3-265.234-219.3-132.4,0-242.537,95.3-265.545,221.086h-14.56C312.215,378.959,428.932,277.2,568.962,277.2,708.376,277.2,824.657,378.064,848.638,510.661Z" transform="translate(-249.147 -277.195)" fill="#3a3535"/>
            <path id="Trazado_41" data-name="Trazado 41" d="M412.117,382.336c25.11,0,25.11,38.931,0,38.931S387.011,382.336,412.117,382.336Z" transform="translate(52.628 26.983)" fill="#fcc62b"/>
            <path id="Trazado_43" data-name="Trazado 43" d="M438.647,471.641a9.536,9.536,0,0,1,1.553,13.392,9.54,9.54,0,0,1-13.388,1.635l-68.366-53.724V335.462a9.54,9.54,0,1,1,19.08,0v88.216Z" transform="translate(-48.17 -136.332)" fill="#3a3535"/>
            <path id="Trazado_44" data-name="Trazado 44" d="M409.6,426.1,484.03,486.05A89.257,89.257,0,1,1,409.6,329.7V426.1Z" transform="translate(-107.416 -125.281)" fill="#fcc62b"/>
            <path id="Trazado_45" data-name="Trazado 45" d="M278.746,342.625h233.56a108.25,108.25,0,0,0-6.568,37.218,103.239,103.239,0,0,0,.606,11.446h-227.6Z" transform="translate(-304.746 -87.903)" fill="#fcc62b"/>
            <path id="Trazado_46" data-name="Trazado 46" d="M334.452,383.845c25.067,0,25.067,38.931,0,38.931C309.342,422.776,309.342,383.845,334.452,383.845Z" transform="translate(-172.069 31.349)" fill="#fcc62b"/>
            <path id="Trazado_42" data-name="Trazado 42" d="M583.837,451.486a124.967,124.967,0,0,0-8.136-29.393A128.732,128.732,0,0,0,478.18,344V332.592h12.3a10.706,10.706,0,1,0,0-21.412H420.407a10.706,10.706,0,0,0,0,21.412h15.261v11.251a129.245,129.245,0,0,0-98.961,80c-1.246,3.153-2.375,6.462-3.348,9.733A127.013,127.013,0,0,0,327.83,470.8c0,3.854.156,7.708.506,11.446.273,3.27.7,6.54,1.246,9.733a128.933,128.933,0,0,0,127.03,107.6c64.391,0,117.843-47.534,127.225-109.356h.039c.467-3.153.818-6.462,1.051-9.733.273-3.153.389-6.385.389-9.694A126.673,126.673,0,0,0,583.837,451.486Zm-127.225,131c-61.51,0-111.653-50.143-111.653-111.692,0-61.51,50.142-111.536,111.653-111.536A111.684,111.684,0,0,1,568.187,470.8C568.187,532.344,518.122,582.487,456.612,582.487Z" transform="translate(-136.743 -178.875)" fill="#3a3535"/>
          </g>
        </g>
      </g>
    </g>
    <path id="Trazado_65" data-name="Trazado 65" d="M33.888,9.5V29.38L18.1,9.5H15.968V34h2.59V14.12L34.308,34h2.135V9.5ZM51.423,34.175a9.055,9.055,0,0,0,9.345-9.38,9.027,9.027,0,0,0-9.345-9.345,9.055,9.055,0,0,0-9.38,9.345A9.084,9.084,0,0,0,51.423,34.175Zm0-2.2c-3.92,0-6.86-2.87-6.86-7.175s2.94-7.175,6.86-7.175,6.825,2.87,6.825,7.175S55.343,31.97,51.423,31.97Zm19.355,2.2c4.795,0,7.6-2.065,7.6-5.25,0-7.07-11.935-3.325-11.935-8.295,0-1.75,1.47-3.045,4.8-3.045a9.436,9.436,0,0,1,5.425,1.575l1.085-2a12.476,12.476,0,0,0-6.51-1.715c-4.69,0-7.28,2.24-7.28,5.25,0,7.28,11.935,3.5,11.935,8.295,0,1.82-1.435,3.01-4.935,3.01a11.12,11.12,0,0,1-6.545-2.065l-1.12,1.96A12.3,12.3,0,0,0,70.778,34.175ZM106.443,8.03V19.09a8.041,8.041,0,0,0-7-3.64,8.906,8.906,0,0,0-9.17,9.345c0,5.565,3.92,9.38,9.17,9.38a7.975,7.975,0,0,0,7.1-3.815V34h2.38V8.03Zm-6.79,23.94c-3.92,0-6.86-2.87-6.86-7.175s2.94-7.175,6.86-7.175c3.885,0,6.825,2.87,6.825,7.175S103.538,31.97,99.653,31.97Zm32.27-7.175c0-5.53-3.745-9.345-8.925-9.345s-9,3.885-9,9.345,3.92,9.38,9.66,9.38a9.062,9.062,0,0,0,7.105-3.01l-1.4-1.61a7.257,7.257,0,0,1-5.635,2.415c-4.025,0-6.965-2.555-7.245-6.4h15.4C131.888,25.285,131.923,25.005,131.923,24.8ZM123,17.585a6.4,6.4,0,0,1,6.545,6.125H116.488A6.4,6.4,0,0,1,123,17.585Zm36.96-2.135a8.017,8.017,0,0,0-7.28,3.885c-1.12-2.59-3.5-3.885-6.545-3.885a7.445,7.445,0,0,0-6.755,3.5V15.59H137V34h2.485V24.34c0-4.2,2.415-6.65,6.16-6.65,3.36,0,5.32,1.995,5.32,5.88V34h2.485V24.34c0-4.2,2.38-6.65,6.16-6.65,3.325,0,5.285,1.995,5.285,5.88V34h2.485V23.325C167.378,18.04,164.438,15.45,159.958,15.45Zm21.77,18.725a9.055,9.055,0,0,0,9.345-9.38,9.363,9.363,0,0,0-18.725,0A9.084,9.084,0,0,0,181.728,34.175Zm0-2.2c-3.92,0-6.86-2.87-6.86-7.175s2.94-7.175,6.86-7.175,6.825,2.87,6.825,7.175S185.648,31.97,181.728,31.97Zm16.8-12.775v-3.6h-2.38V34h2.485V24.62c0-4.34,2.345-6.79,6.2-6.79.175,0,.385.035.6.035V15.45C202.028,15.45,199.683,16.745,198.528,19.195Zm17.78-3.745a11.689,11.689,0,0,0-7.49,2.485l1.12,1.855a9.378,9.378,0,0,1,6.125-2.17c3.43,0,5.215,1.715,5.215,4.865V23.6h-5.845c-5.285,0-7.1,2.38-7.1,5.215,0,3.185,2.555,5.355,6.72,5.355,3.045,0,5.215-1.155,6.335-3.045V34h2.38V22.59C223.763,17.83,221.068,15.45,216.308,15.45Zm-.875,16.765c-2.94,0-4.655-1.33-4.655-3.465,0-1.89,1.155-3.29,4.725-3.29h5.775v3.01A5.89,5.89,0,0,1,215.433,32.215ZM253.478,15.45a8.017,8.017,0,0,0-7.28,3.885c-1.12-2.59-3.5-3.885-6.545-3.885a7.445,7.445,0,0,0-6.755,3.5V15.59h-2.38V34H233V24.34c0-4.2,2.415-6.65,6.16-6.65,3.36,0,5.32,1.995,5.32,5.88V34h2.485V24.34c0-4.2,2.38-6.65,6.16-6.65,3.325,0,5.285,1.995,5.285,5.88V34H260.9V23.325C260.9,18.04,257.958,15.45,253.478,15.45Zm21.77,18.725a9.055,9.055,0,0,0,9.345-9.38,9.363,9.363,0,0,0-18.725,0A9.084,9.084,0,0,0,275.247,34.175Zm0-2.2c-3.92,0-6.86-2.87-6.86-7.175s2.94-7.175,6.86-7.175,6.825,2.87,6.825,7.175S279.168,31.97,275.247,31.97Zm19.355,2.2c4.8,0,7.6-2.065,7.6-5.25,0-7.07-11.935-3.325-11.935-8.295,0-1.75,1.47-3.045,4.8-3.045a9.436,9.436,0,0,1,5.425,1.575l1.085-2a12.476,12.476,0,0,0-6.51-1.715c-4.69,0-7.28,2.24-7.28,5.25,0,7.28,11.935,3.5,11.935,8.295,0,1.82-1.435,3.01-4.935,3.01a11.12,11.12,0,0,1-6.545-2.065l-1.12,1.96A12.3,12.3,0,0,0,294.6,34.175Zm27.02-4.795,5.635-5.32c3.43-3.185,4.1-5.355,4.1-7.735,0-4.445-3.64-7.245-9.1-7.245-4.41,0-7.84,1.785-9.73,4.55l4.13,2.66a5.991,5.991,0,0,1,5.075-2.45c2.59,0,3.92,1.12,3.92,3.045,0,1.19-.385,2.45-2.555,4.515l-9.45,8.925V34h18.515V29.38Zm30.275,4.9c5.635,0,8.89-2.485,8.89-5.985,0-7.42-11.375-4.305-11.375-7.525,0-.98,1.05-1.75,3.5-1.75a10.813,10.813,0,0,1,5.425,1.4l1.82-3.885a15.484,15.484,0,0,0-7.245-1.645c-5.495,0-8.715,2.52-8.715,6.09,0,7.525,11.375,4.375,11.375,7.455,0,1.05-.945,1.715-3.465,1.715a12.883,12.883,0,0,1-6.545-1.82l-1.82,3.92A16.165,16.165,0,0,0,351.9,34.28Zm30.695-9.625c0-6.055-4.27-9.765-9.8-9.765-5.74,0-10.045,4.06-10.045,9.695,0,5.6,4.235,9.695,10.745,9.695,3.4,0,6.02-1.05,7.77-3.045l-2.9-3.15a6.383,6.383,0,0,1-4.725,1.82c-2.87,0-4.865-1.435-5.39-3.78h14.245C382.522,25.67,382.592,25.075,382.592,24.655Zm-9.765-5.635a4.475,4.475,0,0,1,4.62,3.92h-9.275A4.458,4.458,0,0,1,372.828,19.02Zm37.52-4.13a8.467,8.467,0,0,0-6.79,3.08,7.029,7.029,0,0,0-6.2-3.08,7.626,7.626,0,0,0-5.915,2.45V15.17h-5.215V34h5.46V24.55c0-3.36,1.715-4.935,4.13-4.935,2.275,0,3.57,1.4,3.57,4.445V34h5.46V24.55c0-3.36,1.715-4.935,4.165-4.935,2.205,0,3.57,1.4,3.57,4.445V34h5.46V23.22C418.047,17.48,414.827,14.89,410.348,14.89Zm20.2,0a14.475,14.475,0,0,0-8.12,2.275l1.96,3.815a9.054,9.054,0,0,1,5.425-1.75c2.94,0,4.34,1.365,4.34,3.71h-4.34c-5.74,0-8.085,2.31-8.085,5.635,0,3.255,2.625,5.7,7.035,5.7,2.765,0,4.725-.91,5.74-2.625V34h5.11V23.255C439.608,17.55,436.283,14.89,430.543,14.89Zm-.42,15.715c-1.925,0-3.08-.91-3.08-2.275,0-1.26.805-2.2,3.36-2.2h3.745V28.05A4.023,4.023,0,0,1,430.123,30.6ZM455.988,14.89a8.244,8.244,0,0,0-6.23,2.485v-2.2h-5.215V34H450V24.69c0-3.465,1.89-5.075,4.515-5.075,2.415,0,3.815,1.4,3.815,4.445V34h5.46V23.22C463.793,17.48,460.433,14.89,455.988,14.89Zm20.335,0a14.475,14.475,0,0,0-8.12,2.275l1.96,3.815a9.054,9.054,0,0,1,5.425-1.75c2.94,0,4.34,1.365,4.34,3.71h-4.34c-5.74,0-8.085,2.31-8.085,5.635,0,3.255,2.625,5.7,7.035,5.7,2.765,0,4.725-.91,5.74-2.625V34h5.11V23.255C485.388,17.55,482.063,14.89,476.323,14.89ZM475.9,30.6c-1.925,0-3.08-.91-3.08-2.275,0-1.26.805-2.2,3.36-2.2h3.745V28.05A4.023,4.023,0,0,1,475.9,30.6Zm20.755,3.675c5.635,0,8.89-2.485,8.89-5.985,0-7.42-11.375-4.305-11.375-7.525,0-.98,1.05-1.75,3.5-1.75a10.813,10.813,0,0,1,5.425,1.4l1.82-3.885a15.484,15.484,0,0,0-7.245-1.645c-5.495,0-8.715,2.52-8.715,6.09,0,7.525,11.375,4.375,11.375,7.455,0,1.05-.945,1.715-3.465,1.715a12.883,12.883,0,0,1-6.545-1.82l-1.82,3.92A16.165,16.165,0,0,0,496.658,34.28Zm29.75-19.39a14.475,14.475,0,0,0-8.12,2.275l1.96,3.815a9.054,9.054,0,0,1,5.425-1.75c2.94,0,4.34,1.365,4.34,3.71h-4.34c-5.74,0-8.085,2.31-8.085,5.635,0,3.255,2.625,5.7,7.035,5.7,2.765,0,4.725-.91,5.74-2.625V34h5.11V23.255C535.472,17.55,532.147,14.89,526.407,14.89Zm-.42,15.715c-1.925,0-3.08-.91-3.08-2.275,0-1.26.8-2.2,3.36-2.2h3.745V28.05A4.023,4.023,0,0,1,525.987,30.6ZM563.823,15.17v9.31c0,3.465-1.82,5.075-4.34,5.075-2.415,0-3.815-1.4-3.815-4.55V15.17h-5.46V25.81c0,5.81,3.325,8.47,8.05,8.47a7.618,7.618,0,0,0,5.845-2.52V34h5.18V15.17Zm21.98-.28a8.244,8.244,0,0,0-6.23,2.485v-2.2h-5.215V34h5.46V24.69c0-3.465,1.89-5.075,4.515-5.075,2.415,0,3.815,1.4,3.815,4.445V34h5.46V23.22C593.608,17.48,590.247,14.89,585.8,14.89Zm-547.26,47a8.467,8.467,0,0,0-6.79,3.08,7.029,7.029,0,0,0-6.195-3.08,7.626,7.626,0,0,0-5.915,2.45V62.17H14.428V81h5.46V71.55c0-3.36,1.715-4.935,4.13-4.935,2.275,0,3.57,1.4,3.57,4.445V81h5.46V71.55c0-3.36,1.715-4.935,4.165-4.935,2.205,0,3.57,1.4,3.57,4.445V81h5.46V70.22C46.243,64.48,43.022,61.89,38.542,61.89ZM69.8,71.655c0-6.055-4.27-9.765-9.8-9.765-5.74,0-10.045,4.06-10.045,9.695,0,5.6,4.235,9.695,10.745,9.695,3.395,0,6.02-1.05,7.77-3.045l-2.9-3.15a6.383,6.383,0,0,1-4.725,1.82c-2.87,0-4.865-1.435-5.39-3.78H69.693C69.728,72.67,69.8,72.075,69.8,71.655ZM60.033,66.02a4.474,4.474,0,0,1,4.62,3.92H55.378A4.458,4.458,0,0,1,60.033,66.02Zm19.74,15.26c5.635,0,8.89-2.485,8.89-5.985,0-7.42-11.375-4.305-11.375-7.525,0-.98,1.05-1.75,3.5-1.75a10.813,10.813,0,0,1,5.425,1.4l1.82-3.885a15.484,15.484,0,0,0-7.245-1.645c-5.5,0-8.715,2.52-8.715,6.09,0,7.525,11.375,4.375,11.375,7.455,0,1.05-.945,1.715-3.465,1.715a12.883,12.883,0,0,1-6.545-1.82l-1.82,3.92A16.165,16.165,0,0,0,79.772,81.28Zm39.165-9.485c0-5.53-3.745-9.345-8.925-9.345s-9,3.885-9,9.345,3.92,9.38,9.66,9.38a9.062,9.062,0,0,0,7.105-3.01l-1.4-1.61a7.257,7.257,0,0,1-5.635,2.415c-4.025,0-6.965-2.555-7.245-6.4h15.4C118.9,72.285,118.938,72,118.938,71.795Zm-8.925-7.21a6.4,6.4,0,0,1,6.545,6.125H103.5A6.4,6.4,0,0,1,110.013,64.585Zm23.38-2.135c-3.185,0-5.67,1.3-7,3.535v-3.4h-2.38V81H126.5V71.34c0-4.2,2.485-6.65,6.44-6.65,3.5,0,5.53,1.995,5.53,5.88V81h2.485V70.325C140.952,65.04,137.872,62.45,133.393,62.45ZM156.878,81h2.485V55.03h-2.485Zm15.855-18.55a11.689,11.689,0,0,0-7.49,2.485l1.12,1.855a9.378,9.378,0,0,1,6.125-2.17c3.43,0,5.215,1.715,5.215,4.865v1.12h-5.845c-5.285,0-7.1,2.38-7.1,5.215,0,3.185,2.555,5.355,6.72,5.355,3.045,0,5.215-1.155,6.335-3.045V81h2.38V69.59C180.188,64.83,177.492,62.45,172.732,62.45Zm-.875,16.765c-2.94,0-4.655-1.33-4.655-3.465,0-1.89,1.155-3.29,4.725-3.29H177.7v3.01A5.89,5.89,0,0,1,171.857,79.215Zm31.885,1.96a8.116,8.116,0,0,0,7.21-3.64l-1.855-1.26a6.227,6.227,0,0,1-5.355,2.695c-4.025,0-6.965-2.835-6.965-7.175,0-4.305,2.94-7.175,6.965-7.175a6.259,6.259,0,0,1,5.355,2.73l1.855-1.26a8.041,8.041,0,0,0-7.21-3.64c-5.495,0-9.485,3.85-9.485,9.345A9.09,9.09,0,0,0,203.743,81.175Zm19.285,0a9.363,9.363,0,1,0-9.38-9.38A9.055,9.055,0,0,0,223.028,81.175Zm0-2.205c-3.92,0-6.86-2.87-6.86-7.175s2.94-7.175,6.86-7.175,6.825,2.87,6.825,7.175S226.948,78.97,223.028,78.97Zm23.8-16.52c-3.185,0-5.67,1.3-7,3.535v-3.4h-2.38V81h2.485V71.34c0-4.2,2.485-6.65,6.44-6.65,3.5,0,5.53,1.995,5.53,5.88V81h2.485V70.325C254.387,65.04,251.307,62.45,246.827,62.45Zm20.4-5.495a4.21,4.21,0,0,1,2.73.91l.84-1.855a5.834,5.834,0,0,0-3.675-1.155c-3.605,0-5.565,2.17-5.565,5.46V62.59h-3.29v2.1h3.29V81h2.485V64.69h5.6v-2.1h-5.67V60.42C263.977,58.145,265.1,56.955,267.232,56.955Zm21.525,14.84c0-5.53-3.745-9.345-8.925-9.345s-9,3.885-9,9.345,3.92,9.38,9.66,9.38a9.062,9.062,0,0,0,7.105-3.01l-1.4-1.61a7.257,7.257,0,0,1-5.635,2.415c-4.025,0-6.965-2.555-7.245-6.4h15.4C288.723,72.285,288.758,72,288.758,71.795Zm-8.925-7.21a6.4,6.4,0,0,1,6.545,6.125H273.323A6.4,6.4,0,0,1,279.833,64.585Zm21.63,16.59a8.116,8.116,0,0,0,7.21-3.64l-1.855-1.26a6.227,6.227,0,0,1-5.355,2.695c-4.025,0-6.965-2.835-6.965-7.175,0-4.305,2.94-7.175,6.965-7.175a6.259,6.259,0,0,1,5.355,2.73l1.855-1.26a8.041,8.041,0,0,0-7.21-3.64c-5.495,0-9.485,3.85-9.485,9.345A9.09,9.09,0,0,0,301.462,81.175Zm19.39,0a8.116,8.116,0,0,0,7.21-3.64l-1.855-1.26a6.227,6.227,0,0,1-5.355,2.695c-4.025,0-6.965-2.835-6.965-7.175,0-4.305,2.94-7.175,6.965-7.175a6.259,6.259,0,0,1,5.355,2.73l1.855-1.26a8.041,8.041,0,0,0-7.21-3.64c-5.495,0-9.485,3.85-9.485,9.345A9.09,9.09,0,0,0,320.853,81.175Zm13.335-22.61a1.786,1.786,0,0,0,1.82-1.82,1.765,1.765,0,0,0-1.82-1.715,1.768,1.768,0,1,0,0,3.535ZM332.927,81h2.485V62.59h-2.485Zm14.63-21.245h2.45l5.67-4.34h-3.325Zm2.31,21.42a9.363,9.363,0,1,0-9.38-9.38A9.055,9.055,0,0,0,349.867,81.175Zm0-2.205c-3.92,0-6.86-2.87-6.86-7.175s2.94-7.175,6.86-7.175,6.825,2.87,6.825,7.175S353.788,78.97,349.867,78.97Zm23.8-16.52c-3.185,0-5.67,1.3-7,3.535v-3.4h-2.38V81h2.485V71.34c0-4.2,2.485-6.65,6.44-6.65,3.5,0,5.53,1.995,5.53,5.88V81h2.485V70.325C381.228,65.04,378.148,62.45,373.668,62.45Zm37.8-7.42V66.09a8.041,8.041,0,0,0-7-3.64,8.906,8.906,0,0,0-9.17,9.345c0,5.565,3.92,9.38,9.17,9.38a7.975,7.975,0,0,0,7.105-3.815V81h2.38V55.03Zm-6.79,23.94c-3.92,0-6.86-2.87-6.86-7.175s2.94-7.175,6.86-7.175c3.885,0,6.825,2.87,6.825,7.175S408.563,78.97,404.677,78.97Zm32.27-7.175c0-5.53-3.745-9.345-8.925-9.345s-9,3.885-9,9.345,3.92,9.38,9.66,9.38a9.062,9.062,0,0,0,7.105-3.01l-1.4-1.61a7.257,7.257,0,0,1-5.635,2.415c-4.025,0-6.965-2.555-7.245-6.4h15.4C436.913,72.285,436.948,72,436.948,71.795Zm-8.925-7.21a6.4,6.4,0,0,1,6.545,6.125H421.513A6.4,6.4,0,0,1,428.023,64.585Zm31.99,13.51a4.112,4.112,0,0,1-2.73.945c-2.065,0-3.185-1.19-3.185-3.36V64.69h5.6v-2.1h-5.6V58.565h-2.485V62.59h-3.29v2.1h3.29V75.82c0,3.395,1.925,5.355,5.39,5.355a5.918,5.918,0,0,0,3.885-1.3ZM479.508,62.59v9.66c0,4.2-2.415,6.685-6.265,6.685-3.5,0-5.53-1.995-5.53-5.915V62.59h-2.485V73.265c0,5.285,3.08,7.91,7.77,7.91a7.323,7.323,0,0,0,6.615-3.535V81h2.38V62.59Zm25.06-.14a11.689,11.689,0,0,0-7.49,2.485l1.12,1.855a9.378,9.378,0,0,1,6.125-2.17c3.43,0,5.215,1.715,5.215,4.865v1.12h-5.845c-5.285,0-7.105,2.38-7.105,5.215,0,3.185,2.555,5.355,6.72,5.355,3.045,0,5.215-1.155,6.335-3.045V81h2.38V69.59C512.023,64.83,509.328,62.45,504.568,62.45Zm-.875,16.765c-2.94,0-4.655-1.33-4.655-3.465,0-1.89,1.155-3.29,4.725-3.29h5.775v3.01A5.89,5.89,0,0,1,503.693,79.215ZM528.157,62.45c-3.185,0-5.67,1.3-7,3.535v-3.4h-2.38V81h2.485V71.34c0-4.2,2.485-6.65,6.44-6.65,3.5,0,5.53,1.995,5.53,5.88V81h2.485V70.325C535.718,65.04,532.638,62.45,528.157,62.45Zm15.575-3.885a1.786,1.786,0,0,0,1.82-1.82,1.765,1.765,0,0,0-1.82-1.715,1.768,1.768,0,1,0,0,3.535ZM542.472,81h2.485V62.59h-2.485Zm9.415,0h2.485V55.03h-2.485Zm9.415,0h2.485V55.03H561.3Zm16.94.175a9.363,9.363,0,1,0-9.38-9.38A9.055,9.055,0,0,0,578.242,81.175Zm0-2.205c-3.92,0-6.86-2.87-6.86-7.175s2.94-7.175,6.86-7.175,6.825,2.87,6.825,7.175S582.162,78.97,578.242,78.97Zm14.14,2.205a1.912,1.912,0,0,0,1.89-1.925,1.882,1.882,0,0,0-1.89-1.89,1.853,1.853,0,0,0-1.855,1.89A1.883,1.883,0,0,0,592.383,81.175Z" transform="translate(211 1347)"/>
  </g>
</svg>
