<svg xmlns="http://www.w3.org/2000/svg" width="837" height="805" viewBox="0 0 837 805">
  <g id="Grupo_190" data-name="Grupo 190" transform="translate(-96 -1540)">
    <rect id="closeup-shot-newlyweds-holding-hands-showing-wedding-rings" width="837" height="805" transform="translate(96 1540)" fill="#fff"/>
    <path id="Trazado_66" data-name="Trazado 66" d="M24.842,31.76v-9.1h12.67v-2.2H24.842V11.74h14.21V9.5h-16.8V34H39.577V31.76Zm29.68-16.31c-3.185,0-5.67,1.3-7,3.535v-3.4h-2.38V34h2.485V24.34c0-4.2,2.485-6.65,6.44-6.65,3.5,0,5.53,1.995,5.53,5.88V34h2.485V23.325C62.082,18.04,59,15.45,54.522,15.45ZM96.837,34h2.73L88.367,9.5H85.812L74.612,34h2.695l2.94-6.545H93.9ZM81.192,25.355l5.88-13.16,5.88,13.16Zm31.29-9.9c-3.185,0-5.67,1.3-7,3.535v-3.4H103.1V34h2.485V24.34c0-4.2,2.485-6.65,6.44-6.65,3.5,0,5.53,1.995,5.53,5.88V34h2.485V23.325C120.042,18.04,116.962,15.45,112.482,15.45Zm28.7-7.42V19.09a8.041,8.041,0,0,0-7-3.64,8.906,8.906,0,0,0-9.17,9.345c0,5.565,3.92,9.38,9.17,9.38a7.975,7.975,0,0,0,7.1-3.815V34h2.38V8.03Zm-6.79,23.94c-3.92,0-6.86-2.87-6.86-7.175s2.94-7.175,6.86-7.175c3.885,0,6.825,2.87,6.825,7.175S138.277,31.97,134.392,31.97Zm32.27-7.175c0-5.53-3.745-9.345-8.925-9.345s-8.995,3.885-8.995,9.345,3.92,9.38,9.66,9.38a9.062,9.062,0,0,0,7.1-3.01l-1.4-1.61a7.257,7.257,0,0,1-5.635,2.415c-4.025,0-6.965-2.555-7.245-6.4h15.4C166.627,25.285,166.662,25.005,166.662,24.8Zm-8.925-7.21a6.4,6.4,0,0,1,6.545,6.125H151.227A6.4,6.4,0,0,1,157.737,17.585Zm14,16.415h2.485V8.03h-2.485ZM199.7,15.45a7.78,7.78,0,0,0-6.9,3.36V8.03h-2.485V34h2.485V24.34c0-4.2,2.485-6.65,6.44-6.65,3.5,0,5.53,1.995,5.53,5.88V34h2.485V23.325C207.262,18.04,204.182,15.45,199.7,15.45Zm20.755,0a11.689,11.689,0,0,0-7.49,2.485l1.12,1.855a9.378,9.378,0,0,1,6.125-2.17c3.43,0,5.215,1.715,5.215,4.865V23.6h-5.845c-5.285,0-7.1,2.38-7.1,5.215,0,3.185,2.555,5.355,6.72,5.355,3.045,0,5.215-1.155,6.335-3.045V34h2.38V22.59C227.912,17.83,225.217,15.45,220.457,15.45Zm-.875,16.765c-2.94,0-4.655-1.33-4.655-3.465,0-1.89,1.155-3.29,4.725-3.29h5.775v3.01A5.89,5.89,0,0,1,219.582,32.215Zm22.785,1.96a8.116,8.116,0,0,0,7.21-3.64l-1.855-1.26a6.227,6.227,0,0,1-5.355,2.695c-4.025,0-6.965-2.835-6.965-7.175,0-4.305,2.94-7.175,6.965-7.175a6.259,6.259,0,0,1,5.355,2.73l1.855-1.26a8.041,8.041,0,0,0-7.21-3.64c-5.495,0-9.485,3.85-9.485,9.345A9.09,9.09,0,0,0,242.367,34.175Zm27.825-9.38c0-5.53-3.745-9.345-8.925-9.345s-9,3.885-9,9.345,3.92,9.38,9.66,9.38a9.062,9.062,0,0,0,7.105-3.01l-1.4-1.61A7.257,7.257,0,0,1,262,31.97c-4.025,0-6.965-2.555-7.245-6.4h15.4C270.157,25.285,270.192,25.005,270.192,24.8Zm-8.925-7.21a6.4,6.4,0,0,1,6.545,6.125H254.757A6.4,6.4,0,0,1,261.267,17.585Zm36.96-2.135a8.017,8.017,0,0,0-7.28,3.885c-1.12-2.59-3.5-3.885-6.545-3.885a7.445,7.445,0,0,0-6.755,3.5V15.59h-2.38V34h2.485V24.34c0-4.2,2.415-6.65,6.16-6.65,3.36,0,5.32,1.995,5.32,5.88V34h2.485V24.34c0-4.2,2.38-6.65,6.16-6.65,3.325,0,5.285,1.995,5.285,5.88V34h2.485V23.325C305.647,18.04,302.707,15.45,298.227,15.45ZM320,34.175a9.055,9.055,0,0,0,9.345-9.38,9.363,9.363,0,0,0-18.725,0A9.084,9.084,0,0,0,320,34.175Zm0-2.2c-3.92,0-6.86-2.87-6.86-7.175s2.94-7.175,6.86-7.175,6.825,2.87,6.825,7.175S323.917,31.97,320,31.97Zm19.355,2.2c4.8,0,7.6-2.065,7.6-5.25,0-7.07-11.935-3.325-11.935-8.295,0-1.75,1.47-3.045,4.8-3.045a9.436,9.436,0,0,1,5.425,1.575l1.085-2a12.476,12.476,0,0,0-6.51-1.715c-4.69,0-7.28,2.24-7.28,5.25,0,7.28,11.935,3.5,11.935,8.295,0,1.82-1.435,3.01-4.935,3.01a11.12,11.12,0,0,1-6.545-2.065l-1.12,1.96A12.3,12.3,0,0,0,339.352,34.175Zm37.415-9.38c0-5.53-3.745-9.345-8.925-9.345s-9,3.885-9,9.345,3.92,9.38,9.66,9.38a9.062,9.062,0,0,0,7.105-3.01l-1.4-1.61a7.257,7.257,0,0,1-5.635,2.415c-4.025,0-6.965-2.555-7.245-6.4h15.4C376.732,25.285,376.767,25.005,376.767,24.8Zm-8.925-7.21a6.4,6.4,0,0,1,6.545,6.125H361.332A6.4,6.4,0,0,1,367.842,17.585Zm23.38-2.135c-3.185,0-5.67,1.3-7,3.535v-3.4h-2.38V34h2.485V24.34c0-4.2,2.485-6.65,6.44-6.65,3.5,0,5.53,1.995,5.53,5.88V34h2.485V23.325C398.782,18.04,395.7,15.45,391.222,15.45Zm26.985.14-6.965,15.68-6.895-15.68h-2.59L409.912,34h2.555l8.19-18.41Zm4.935-2.835h2.45l5.67-4.34h-3.325ZM424.157,34h2.485V15.59h-2.485Zm16.94.175a9.055,9.055,0,0,0,9.345-9.38,9.363,9.363,0,0,0-18.725,0A9.084,9.084,0,0,0,441.1,34.175Zm0-2.2c-3.92,0-6.86-2.87-6.86-7.175s2.94-7.175,6.86-7.175,6.825,2.87,6.825,7.175S445.017,31.97,441.1,31.97Zm19.355,2.2c4.8,0,7.6-2.065,7.6-5.25,0-7.07-11.935-3.325-11.935-8.295,0-1.75,1.47-3.045,4.8-3.045a9.436,9.436,0,0,1,5.425,1.575l1.085-2a12.476,12.476,0,0,0-6.51-1.715c-4.69,0-7.28,2.24-7.28,5.25,0,7.28,11.935,3.5,11.935,8.295,0,1.82-1.435,3.01-4.935,3.01a11.12,11.12,0,0,1-6.545-2.065l-1.12,1.96A12.3,12.3,0,0,0,460.452,34.175Zm28-19.285a14.475,14.475,0,0,0-8.12,2.275l1.96,3.815a9.054,9.054,0,0,1,5.425-1.75c2.94,0,4.34,1.365,4.34,3.71h-4.34c-5.74,0-8.085,2.31-8.085,5.635,0,3.255,2.625,5.7,7.035,5.7,2.765,0,4.725-.91,5.74-2.625V34h5.11V23.255C497.517,17.55,494.193,14.89,488.452,14.89Zm-.42,15.715c-1.925,0-3.08-.91-3.08-2.275,0-1.26.805-2.2,3.36-2.2h3.745V28.05A4.023,4.023,0,0,1,488.033,30.6ZM512.357,34h5.46V8.03h-5.46Zm19.495.28c5.985,0,10.325-4.025,10.325-9.695s-4.34-9.695-10.325-9.695-10.36,4.025-10.36,9.695S525.867,34.28,531.852,34.28Zm0-4.48c-2.73,0-4.83-1.96-4.83-5.215s2.1-5.215,4.83-5.215,4.8,1.96,4.8,5.215S534.582,29.8,531.852,29.8Zm23.87,4.2h5.46V8.03h-5.46Zm18.13-19.11a14.475,14.475,0,0,0-8.12,2.275l1.96,3.815a9.054,9.054,0,0,1,5.425-1.75c2.94,0,4.34,1.365,4.34,3.71h-4.34c-5.74,0-8.085,2.31-8.085,5.635,0,3.255,2.625,5.7,7.035,5.7,2.765,0,4.725-.91,5.74-2.625V34h5.11V23.255C582.917,17.55,579.592,14.89,573.852,14.89Zm-.42,15.715c-1.925,0-3.08-.91-3.08-2.275,0-1.26.8-2.2,3.36-2.2h3.745V28.05A4.023,4.023,0,0,1,573.432,30.6Zm19.635-12.95V15.17h-5.215V34h5.46V25.11c0-3.6,1.995-5.25,5.005-5.25.42,0,.77.035,1.225.07V14.89C596.638,14.89,594.4,15.835,593.068,17.655Zm23.8-2.485v2.415a7.559,7.559,0,0,0-6.23-2.695c-5.215,0-9.415,3.605-9.415,9.1s4.2,9.1,9.415,9.1a7.752,7.752,0,0,0,5.95-2.345v.805c0,3.4-1.68,5.145-5.53,5.145a11.254,11.254,0,0,1-6.65-2.135l-2.17,3.92c2.205,1.715,5.67,2.59,9.24,2.59,6.79,0,10.57-3.22,10.57-10.22V15.17Zm-5.145,13.44c-2.87,0-4.97-1.855-4.97-4.62s2.1-4.62,4.97-4.62,4.935,1.855,4.935,4.62S614.593,28.61,611.723,28.61Zm24.36,5.67c5.985,0,10.325-4.025,10.325-9.695s-4.34-9.695-10.325-9.695-10.36,4.025-10.36,9.695S630.1,34.28,636.083,34.28Zm0-4.48c-2.73,0-4.83-1.96-4.83-5.215s2.1-5.215,4.83-5.215,4.8,1.96,4.8,5.215S638.813,29.8,636.083,29.8Zm37.59-21.77v9.135a7.234,7.234,0,0,0-5.635-2.275c-5.32,0-9.415,3.78-9.415,9.695s4.095,9.695,9.415,9.695a7.243,7.243,0,0,0,5.88-2.45V34h5.215V8.03Zm-4.69,21.77c-2.73,0-4.83-1.96-4.83-5.215s2.1-5.215,4.83-5.215c2.7,0,4.795,1.96,4.795,5.215S671.677,29.8,668.982,29.8Zm33.635-5.145c0-6.055-4.27-9.765-9.8-9.765-5.74,0-10.045,4.06-10.045,9.695,0,5.6,4.235,9.695,10.745,9.695,3.4,0,6.02-1.05,7.77-3.045l-2.905-3.15a6.383,6.383,0,0,1-4.725,1.82c-2.87,0-4.865-1.435-5.39-3.78h14.245C702.547,25.67,702.617,25.075,702.617,24.655Zm-9.765-5.635a4.474,4.474,0,0,1,4.62,3.92H688.2A4.458,4.458,0,0,1,692.852,19.02ZM263.77,76.24a3.68,3.68,0,0,1-2.205.7,2.2,2.2,0,0,1-2.345-2.485V66.79h4.69v-4.2h-4.69V58h-5.46V62.59h-2.9v4.2h2.9v7.735c0,4.48,2.59,6.755,7.035,6.755a7.8,7.8,0,0,0,4.445-1.19Zm12.915,5.04c5.985,0,10.325-4.025,10.325-9.695s-4.34-9.695-10.325-9.695-10.36,4.025-10.36,9.695S270.7,81.28,276.685,81.28Zm0-4.48c-2.73,0-4.83-1.96-4.83-5.215s2.1-5.215,4.83-5.215,4.795,1.96,4.795,5.215S279.415,76.8,276.685,76.8ZM304.37,55.03v9.135a7.234,7.234,0,0,0-5.635-2.275c-5.32,0-9.415,3.78-9.415,9.695s4.1,9.695,9.415,9.695a7.243,7.243,0,0,0,5.88-2.45V81h5.215V55.03ZM299.68,76.8c-2.73,0-4.83-1.96-4.83-5.215s2.1-5.215,4.83-5.215c2.7,0,4.8,1.96,4.8,5.215S302.375,76.8,299.68,76.8Zm24.15,4.48c5.985,0,10.325-4.025,10.325-9.695s-4.34-9.695-10.325-9.695-10.36,4.025-10.36,9.695S317.845,81.28,323.83,81.28Zm0-4.48c-2.73,0-4.83-1.96-4.83-5.215s2.1-5.215,4.83-5.215,4.795,1.96,4.795,5.215S326.56,76.8,323.83,76.8Zm42.315-5.145c0-6.055-4.27-9.765-9.8-9.765-5.74,0-10.045,4.06-10.045,9.695,0,5.6,4.235,9.695,10.745,9.695,3.4,0,6.02-1.05,7.77-3.045l-2.9-3.15a6.383,6.383,0,0,1-4.725,1.82c-2.87,0-4.865-1.435-5.39-3.78H366.04C366.075,72.67,366.145,72.075,366.145,71.655ZM356.38,66.02A4.475,4.475,0,0,1,361,69.94h-9.275A4.458,4.458,0,0,1,356.38,66.02ZM369.785,81h5.46V55.03h-5.46Zm31.57-19.11a7.316,7.316,0,0,0-5.915,2.45V62.17h-5.215V87.79h5.46V79a7.31,7.31,0,0,0,5.67,2.275c5.285,0,9.38-3.78,9.38-9.695S406.64,61.89,401.355,61.89ZM400.41,76.8c-2.73,0-4.795-1.96-4.795-5.215s2.065-5.215,4.795-5.215,4.8,1.96,4.8,5.215S403.14,76.8,400.41,76.8Zm21.245-14.91a14.475,14.475,0,0,0-8.12,2.275l1.96,3.815a9.054,9.054,0,0,1,5.425-1.75c2.94,0,4.34,1.365,4.34,3.71h-4.34c-5.74,0-8.085,2.31-8.085,5.635,0,3.255,2.625,5.705,7.035,5.705,2.765,0,4.725-.91,5.74-2.625V81h5.11V70.255C430.72,64.55,427.4,61.89,421.655,61.89Zm-.42,15.715c-1.925,0-3.08-.91-3.08-2.275,0-1.26.805-2.205,3.36-2.205h3.745V75.05A4.023,4.023,0,0,1,421.235,77.605ZM435.2,59.755h4.27l6.335-5.04h-5.88ZM435.655,81h5.46V62.17h-5.46Zm16.87.28c5.635,0,8.89-2.485,8.89-5.985,0-7.42-11.375-4.305-11.375-7.525,0-.98,1.05-1.75,3.5-1.75a10.814,10.814,0,0,1,5.425,1.4l1.82-3.885a15.484,15.484,0,0,0-7.245-1.645c-5.495,0-8.715,2.52-8.715,6.09,0,7.525,11.375,4.375,11.375,7.455,0,1.05-.945,1.715-3.465,1.715a12.883,12.883,0,0,1-6.545-1.82l-1.82,3.92A16.165,16.165,0,0,0,452.525,81.28Zm14.315,0a3.341,3.341,0,0,0,3.4-3.43,3.4,3.4,0,0,0-6.79,0A3.341,3.341,0,0,0,466.84,81.28Z" transform="translate(151 2175)"/>
    <g id="Grupo_189" data-name="Grupo 189" transform="translate(155.202 1562.88)">
      <text id="ENVÍO_SEGURO" data-name="ENVÍO
SEGURO" transform="translate(354.073 416.481)" fill="#3a3535" font-size="79" font-family="OpenSans-Extrabold, Open Sans" font-weight="800"><tspan x="-127.256" y="0">ENVÍO</tspan><tspan x="-161.819" y="79">SEGURO</tspan></text>
      <g id="Grupo_188" data-name="Grupo 188" transform="translate(32.197 59.12)">
        <g id="Grupo_187" data-name="Grupo 187">
          <g id="Grupo_186" data-name="Grupo 186">
            <path id="Trazado_47" data-name="Trazado 47" d="M610.356,119.441,682.4,269.067,608.8,421.939h-503L32.2,269.067,104.24,119.441a5.719,5.719,0,0,1,10.728,3.757,4.191,4.191,0,0,1-.414,1.21L44.931,269.067l68.064,141.412H601.6l68.064-141.412L600.042,124.408a5.694,5.694,0,0,1-.35-4.011,5.8,5.8,0,0,1,3.024-3.629A5.733,5.733,0,0,1,610.356,119.441Z" transform="translate(-32.197 65.521)" fill="#fcc62b"/>
            <path id="Trazado_48" data-name="Trazado 48" d="M343.69,177.267c5.794,3.5,8.946,12.861,6.908,20.438l-3.661,13.657-6.017,22.444c-1.846,6.94-9.041,12.607-15.981,12.607H281.261c.191-1.369.35-2.706.414-4.011a13.745,13.745,0,0,0,.1-1.592c.032-1.019.032-1.974,0-2.961a12.835,12.835,0,0,0-.127-1.91,36.274,36.274,0,0,0-5.858-17.478,10.108,10.108,0,0,0-.859-1.178,26.61,26.61,0,0,0-2.865-3.406,11.777,11.777,0,0,0-.891-.891,22.351,22.351,0,0,0-2.037-1.815,10.831,10.831,0,0,0-.955-.732c-.223-.191-.446-.35-.669-.509-.414-.318-.86-.6-1.305-.891-.541-.35-1.082-.7-1.655-1.019a31.451,31.451,0,0,0-3.6-1.783c-.573-.255-1.114-.478-1.687-.7a3.746,3.746,0,0,0-.637-.223c-.477-.191-1.019-.382-1.56-.541-.6-.191-1.242-.382-1.91-.541-.159-.032-.35-.064-.477-.1a16.638,16.638,0,0,0-1.719-.382c-.86-.191-1.719-.318-2.579-.446-.923-.127-1.91-.223-2.865-.287-1.146-.1-2.356-.127-3.534-.127-1.21,0-2.419.032-3.629.127-.987.064-2.006.159-3.024.287-.923.127-1.846.255-2.8.446-.6.1-1.273.223-1.91.382-.159.032-.35.064-.541.1-.732.159-1.464.35-2.228.541-.6.159-1.242.35-1.846.541-.223.064-.478.127-.732.223-.669.223-1.369.414-2.037.7a24.3,24.3,0,0,0-2.292.828c-.764.287-1.528.6-2.26.955a20,20,0,0,0-2.228,1.019c-.7.318-1.433.669-2.133,1.051-.1.064-.191.1-.286.159-.669.35-1.305.7-1.974,1.082-.732.414-1.433.828-2.133,1.305-.732.414-1.4.86-2.1,1.337-.669.446-1.369.923-2.037,1.433-.7.478-1.337.987-2.006,1.5-1.337.987-2.642,2.069-3.884,3.184-.669.6-1.305,1.21-1.942,1.815-.573.541-1.146,1.082-1.687,1.655-1.146,1.178-2.26,2.388-3.311,3.629a64.933,64.933,0,0,0-4.648,6.049c-.478.7-.923,1.369-1.337,2.069a15.836,15.836,0,0,0-1.019,1.687c-.541.86-1.019,1.751-1.5,2.642a16.8,16.8,0,0,0-.86,1.687,26.806,26.806,0,0,0-1.337,2.929,17.464,17.464,0,0,0-.732,1.783,1.948,1.948,0,0,0-.159.382H155.321c-6.94,0-11.079-5.667-9.232-12.607l14.294-53.292L188.939,73.93l123.3.127c-.127,1.974-.318,4.011-.446,5.985l-4.489,56.7c-.764,9.742,4.521,21.011,12.065,25.627Zm-4.011,25.468c2.865-10.76-2.865-19.483-12.861-19.483-5.221,0-10.569,2.388-14.9,6.272l-5.539,20.247h31.358c.127-.446.286-.891.382-1.305Zm-36.26-106.17a16.95,16.95,0,0,0-17.287-18.624H211.924c-10.76,0-21.839,8.723-24.7,19.483l-9.2,34.382c-2.9,10.76,3.5,19.483,14.262,19.483h86.082a22.136,22.136,0,0,0,14.708-5.858,21.5,21.5,0,0,0,7.195-13.976Z" transform="translate(215.527 -26.782)" fill="#3a3535"/>
            <path id="Trazado_49" data-name="Trazado 49" d="M218.085,184.01c27.728,0,27.728,42.977,0,42.977C190.388,226.988,190.388,184.01,218.085,184.01Z" transform="translate(328.335 213.58)" fill="#3a3535"/>
            <path id="Trazado_50" data-name="Trazado 50" d="M269.818,67.09c7.768,0,12.861,4.3,12.575,8.15l-.223,2.706c-.1,1.273-.191,2.674-.318,4.17l-122.024-.127.6-2.292c1.846-6.94,9.041-12.607,15.981-12.607Z" transform="translate(246.486 -41.717)" fill="#fcc62b"/>
            <path id="Trazado_51" data-name="Trazado 51" d="M246.372,146.684a42.221,42.221,0,0,1-.955,10.187l-.032.064c-.127.637-.286,1.369-.478,2.069-6.271,23.367-30.4,42.4-53.77,42.4-23.4,0-37.311-19.038-31.039-42.4.191-.7.382-1.369.6-2.069l.032-.1c7.163-22.571,30.5-40.24,53.133-40.24,16.236,0,27.983,9.137,31.453,22.635a28.178,28.178,0,0,1,.732,3.629c.1.637.159,1.305.223,1.91C246.309,145.379,246.34,146.048,246.372,146.684ZM238.031,159c5.253-19.61-6.431-35.528-26.009-35.528S172.228,139.394,166.975,159c-5.253,19.547,6.431,35.528,26.009,35.528S232.779,178.551,238.031,159Z" transform="translate(243.794 66.389)" fill="#fcc62b"/>
            <path id="Trazado_52" data-name="Trazado 52" d="M200.408,120.92c15.822,0,25.213,12.83,20.979,28.652-4.234,15.758-20.534,28.652-36.324,28.652-15.822,0-25.214-12.893-20.979-28.652C168.318,133.75,184.617,120.92,200.408,120.92Z" transform="translate(253.562 75.822)" fill="#3a3535"/>
            <path id="Trazado_53" data-name="Trazado 53" d="M367.225,67.09,363.85,79.7l-.6,2.292-1.878,6.876-26.232,97.989H63.517l5.507-20.5,1.019-3.852,2.26-8.436,1.273-4.807L76.506,138.4l1.624-6.049.987-3.757A37.859,37.859,0,0,0,103.725,67.09Zm-138.8,103.051,86.369-43.169L251.6,83.8l-5.953,22.062H126.455l-2.006,7.481-2.547,9.582-2.515,9.36-2.1,7.863-1.56,5.826H234.918Z" transform="translate(36.191 -41.717)" fill="#fcc62b"/>
            <path id="Trazado_54" data-name="Trazado 54" d="M343.835,106.87,329.1,161.881l-3.375,12.607H202.964c.191-1.369.35-2.706.414-4.011a13.759,13.759,0,0,0,.1-1.592c.032-1.019.032-1.974,0-2.961a12.839,12.839,0,0,0-.127-1.91,35.944,35.944,0,0,0-5.858-17.478,10.112,10.112,0,0,0-.86-1.178,26.608,26.608,0,0,0-2.865-3.406,11.776,11.776,0,0,0-.891-.891,22.36,22.36,0,0,0-2.037-1.815,10.83,10.83,0,0,0-.955-.732c-.223-.191-.446-.35-.669-.509-.414-.318-.86-.6-1.305-.891-.541-.35-1.082-.7-1.655-1.019a19.175,19.175,0,0,0-1.783-.955,15.733,15.733,0,0,0-1.815-.828c-.573-.255-1.114-.478-1.687-.7a3.746,3.746,0,0,0-.637-.223c-.478-.191-1.019-.382-1.56-.541-.6-.191-1.242-.382-1.91-.541-.159-.032-.35-.064-.478-.1a16.64,16.64,0,0,0-1.719-.382c-.86-.191-1.719-.318-2.579-.446q-1.433-.191-2.865-.287c-1.146-.1-2.356-.127-3.534-.127-1.21,0-2.419.032-3.629.127-.987.064-2.006.159-3.024.287-.923.127-1.846.255-2.8.446-.6.1-1.273.223-1.91.382-.159.032-.35.064-.541.1-.732.159-1.464.35-2.228.541-.6.159-1.242.35-1.846.541-.223.064-.478.127-.732.223-.669.223-1.369.414-2.037.7a24.3,24.3,0,0,0-2.292.828c-.764.287-1.528.6-2.26.955a20,20,0,0,0-2.228,1.019c-.7.318-1.433.669-2.133,1.051-.1.064-.191.1-.287.159-.669.35-1.305.7-1.974,1.082-.732.414-1.433.828-2.133,1.305-.732.414-1.4.86-2.1,1.337-.669.446-1.369.923-2.037,1.433-.7.478-1.337.987-2.006,1.5-1.337.987-2.642,2.069-3.884,3.184-.669.6-1.305,1.21-1.942,1.815-.573.541-1.146,1.082-1.687,1.655-1.146,1.178-2.26,2.388-3.311,3.629a64.937,64.937,0,0,0-4.648,6.049c-.478.7-.923,1.369-1.337,2.069-.382.573-.7,1.114-1.019,1.687-.541.86-1.019,1.751-1.5,2.642a16.8,16.8,0,0,0-.86,1.687,26.792,26.792,0,0,0-1.337,2.929,17.45,17.45,0,0,0-.732,1.783,1.947,1.947,0,0,0-.159.382H58.687L66.3,146.027,76.8,106.87Z" transform="translate(25.644 45.143)" fill="#3a3535"/>
            <path id="Trazado_55" data-name="Trazado 55" d="M162.132,146.684a43.884,43.884,0,0,1-.955,10.187l-.032.064c-.127.637-.286,1.369-.478,2.069-6.272,23.367-30.4,42.4-53.77,42.4-23.4,0-37.311-19.038-31.039-42.4.191-.7.382-1.369.6-2.069l.032-.1c7.163-22.571,30.5-40.24,53.133-40.24,16.236,0,27.983,9.137,31.453,22.635a28.178,28.178,0,0,1,.732,3.629c.1.637.127,1.305.191,1.91S162.1,146.048,162.132,146.684ZM153.791,159c5.253-19.61-6.431-35.528-26.009-35.528S87.988,139.394,82.735,159c-5.253,19.547,6.431,35.528,26.009,35.528S148.539,178.551,153.791,159Z" transform="translate(59.855 66.389)" fill="#fcc62b"/>
            <path id="Trazado_56" data-name="Trazado 56" d="M105.083,79.27l-.35.286-5.826-.286Z" transform="translate(113.465 -15.122)" fill="#3a3535"/>
            <path id="Trazado_57" data-name="Trazado 57" d="M116.168,120.92c15.822,0,25.213,12.83,20.979,28.652-4.234,15.758-20.534,28.652-36.324,28.652-15.822,0-25.213-12.893-20.979-28.652C84.078,133.75,100.377,120.92,116.168,120.92Z" transform="translate(69.623 75.822)" fill="#3a3535"/>
            <path id="Trazado_58" data-name="Trazado 58" d="M93.026,67.09A37.859,37.859,0,0,1,68.417,128.6l1.433-5.348a32.8,32.8,0,0,0,16.3-56.157Z" transform="translate(46.89 -41.717)" fill="#3a3535"/>
            <path id="Trazado_59" data-name="Trazado 59" d="M99.268,71.058a37.8,37.8,0,0,1,23.017,13.434h-6.876a32.583,32.583,0,0,0-22.476-8.946,32.854,32.854,0,1,0,0,65.708,30.554,30.554,0,0,0,6.176-.6L97.676,146a33.283,33.283,0,0,1-4.743.318,37.914,37.914,0,0,1-6.176-75.322V65.423H81.122A3.166,3.166,0,0,1,77.97,62.24a3.132,3.132,0,0,1,3.152-3.12h22.921a3.132,3.132,0,0,1,3.152,3.12,3.166,3.166,0,0,1-3.152,3.184H99.268Z" transform="translate(17.631 -59.12)" fill="#3a3535"/>
            <path id="Trazado_60" data-name="Trazado 60" d="M79.877,82.781a2.822,2.822,0,0,1,.446,3.948,2.789,2.789,0,0,1-2.2,1.082,2.852,2.852,0,0,1-1.751-.6l-5.858-4.584.637-2.324.955-3.6Z" transform="translate(51.476 -20.734)" fill="#3a3535"/>
            <path id="Trazado_61" data-name="Trazado 61" d="M72.056,79.44l6.017,4.839a26.006,26.006,0,0,1-8.6,4.712l.7-2.579Z" transform="translate(49.205 -14.751)" fill="#fcc62b"/>
            <path id="Trazado_62" data-name="Trazado 62" d="M71.672,93.909l10.219,8.054-.955,3.6-.637,2.324L66.037,96.647V67.963a2.817,2.817,0,1,1,5.635,0Z" transform="translate(41.693 -45.997)" fill="#3a3535"/>
            <path id="Trazado_63" data-name="Trazado 63" d="M95.66,107.673l-1.878,6.972-.7,2.579a24.533,24.533,0,0,1-8.118,1.337A26.286,26.286,0,0,1,79.742,66.51V94.875Z" transform="translate(25.601 -42.984)" fill="#fcc62b"/>
            <path id="Trazado_64" data-name="Trazado 64" d="M78.884,183.11c27.728,0,27.728,42.978,0,42.978C51.188,226.088,51.188,183.11,78.884,183.11Z" transform="translate(24.389 211.615)" fill="#3a3535"/>
          </g>
        </g>
      </g>
    </g>
  </g>
</svg>
