<svg xmlns="http://www.w3.org/2000/svg" width="130.517" height="85.816" viewBox="0 0 130.517 85.816">
  <g id="Grupo_174" data-name="Grupo 174" transform="translate(-182.383 -268.813)">
    <path id="Trazado_4" data-name="Trazado 4" d="M16-77.168H8.183L4.126-67.036a4.405,4.405,0,0,0-.182.491,1.944,1.944,0,0,0-.236.855q0,.6.891.6v.255H.616v-.255a1.984,1.984,0,0,0,1.564-.6,6.775,6.775,0,0,0,.982-1.819l9.714-24.52h.455L22.9-68.346a.564.564,0,0,0,.109.309l.146.4A6.872,6.872,0,0,0,24.2-65.8a2.067,2.067,0,0,0,1.683.709v.255H19.624v-.255a.8.8,0,0,0,.691-.236.784.784,0,0,0,.164-.437,3.983,3.983,0,0,0-.418-1.455,2.158,2.158,0,0,1-.091-.227.608.608,0,0,0-.091-.191Zm-7.567-.746h7.24l-3.62-9.131ZM49.493-91.629h5.184v.273a2.367,2.367,0,0,0-1.646.5,2.972,2.972,0,0,0-.446,1.955v24.393L31.212-87.264v19.827a6.386,6.386,0,0,0,.091,1.191,1.328,1.328,0,0,0,.327.7,1,1,0,0,0,.491.291q.255.055,1.019.164v.255H27.992v-.255a3.107,3.107,0,0,0,1.446-.273,1.069,1.069,0,0,0,.518-.773,11.939,11.939,0,0,0,.091-1.792V-86.063a10.133,10.133,0,0,0-.637-3.829q-.637-1.555-3.092-1.464v-.273h5.039L51.439-70.238V-89.156a2.444,2.444,0,0,0-.464-1.792,2.21,2.21,0,0,0-1.482-.409Zm7.858.273v-.273h12.3a28.946,28.946,0,0,1,7.185.673A14.48,14.48,0,0,1,81-89.156a11.017,11.017,0,0,1,2.674,2.465,11.488,11.488,0,0,1,1.846,3.465,13.039,13.039,0,0,1,.664,4.2,13.806,13.806,0,0,1-.582,4.029,15.477,15.477,0,0,1-1.619,3.611,15.079,15.079,0,0,1-2.292,2.92A13.719,13.719,0,0,1,79-66.4a10.429,10.429,0,0,1-3.62,1.219,35.021,35.021,0,0,1-5.439.346H57.351v-.255h.327a1.389,1.389,0,0,0,.973-.309,1.916,1.916,0,0,0,.482-1.064,13.11,13.11,0,0,0,.146-2.283V-88.264a6.679,6.679,0,0,0-.291-2.519Q58.7-91.338,57.351-91.357Zm9.131.291H62.371v20.791a5.89,5.89,0,0,0,.518,2.692,3.393,3.393,0,0,0,2.083,1.519,15.658,15.658,0,0,0,4.639.518,23.111,23.111,0,0,0,4.12-.327,12.562,12.562,0,0,0,3.192-1,9.877,9.877,0,0,0,2.547-1.764A11.676,11.676,0,0,0,82.2-72.775a13.307,13.307,0,0,0,1.037-5.066,12.587,12.587,0,0,0-.482-3.411,12.807,12.807,0,0,0-1.51-3.356,12.529,12.529,0,0,0-2.8-3.065,13.7,13.7,0,0,0-4.247-2.265A23.414,23.414,0,0,0,66.482-91.066Zm22.356-.255v-.309h16.844v3.693h-.273a14.655,14.655,0,0,0-.646-2,1.131,1.131,0,0,0-.628-.655,5.523,5.523,0,0,0-1.473-.127h-8.84V-78.7h8.2a4.74,4.74,0,0,0,1.392-.146.8.8,0,0,0,.5-.746h.273v2.528h-.273q-.127-.618-.5-.755a3.685,3.685,0,0,0-1.173-.136H93.822v8.277a7.431,7.431,0,0,0,.355,2.692,1.679,1.679,0,0,0,1.073,1.046,9.044,9.044,0,0,0,2.3.209h4.729A19.928,19.928,0,0,0,105-65.854a1.892,1.892,0,0,0,1.255-.7,4.33,4.33,0,0,0,.646-1.974h.255v3.693H88.838v-.255a2.993,2.993,0,0,0,1.446-.382q.446-.309.446-1.528V-88.646a4.867,4.867,0,0,0-.309-2.146Q90.111-91.32,88.838-91.32Zm19.191,26.485v-.255q1.292,0,1.646-.473a2.779,2.779,0,0,0,.355-1.619V-89.119a2.669,2.669,0,0,0-.409-1.819,2.594,2.594,0,0,0-1.628-.418v-.273h7.185v.273a2.67,2.67,0,0,0-1.419.264,1.116,1.116,0,0,0-.546.755,8,8,0,0,0-.091,1.4v18.809a6.356,6.356,0,0,0,.291,2.083,2.993,2.993,0,0,0,.9,1.337,3.851,3.851,0,0,0,1.6.746,10.262,10.262,0,0,0,2.356.236h3.274a5.29,5.29,0,0,0,2.783-.618,3.316,3.316,0,0,0,1.41-1.81,11.5,11.5,0,0,0,.5-3.12h.255v6.439Z" transform="translate(181.768 396.815)" fill="#010002"/>
    <path id="Trazado_5" data-name="Trazado 5" d="M-2.466-38.128H.524v.114q-.583.008-.719.231a1.548,1.548,0,0,0-.136.761v9.484q0,.78-.049,1.51a4.874,4.874,0,0,1-.132.988,2.878,2.878,0,0,1-.636,1.1,2.333,2.333,0,0,1-1.741.7,4.035,4.035,0,0,1-.4-.023,3.671,3.671,0,0,1-.466-.079Q-4-23.4-4.093-23.425t-.159-.049l.015-.129a2.225,2.225,0,0,0,.606.068,1.778,1.778,0,0,0,1.143-.356,1.975,1.975,0,0,0,.643-.946,6.026,6.026,0,0,0,.227-1.877V-36.978a1.72,1.72,0,0,0-.136-.821q-.136-.223-.712-.216Zm24.607,4.822a7.344,7.344,0,0,1-.416,2.46,6.191,6.191,0,0,1-1.238,2.1,5.7,5.7,0,0,1-2.01,1.431,6.579,6.579,0,0,1-2.642.515,5.53,5.53,0,0,1-2.146-.4,4.971,4.971,0,0,1-1.68-1.135A5.016,5.016,0,0,1,10.935-30a5.246,5.246,0,0,1-.367-1.949,6.63,6.63,0,0,1,.394-2.2,6.6,6.6,0,0,1,1.173-2.059,5.825,5.825,0,0,1,1.968-1.51,6.143,6.143,0,0,1,2.71-.575A5.966,5.966,0,0,1,19-37.913a5,5,0,0,1,1.692,1.075,4.693,4.693,0,0,1,1.082,1.6A5.047,5.047,0,0,1,22.142-33.307Zm-.7,1.37a5.179,5.179,0,0,0-.545-2.377,5.966,5.966,0,0,0-1.412-1.828A6.638,6.638,0,0,0,17.623-37.3a4.949,4.949,0,0,0-1.847-.4,4.283,4.283,0,0,0-2.059.549A4.479,4.479,0,0,0,12.059-35.6a4.082,4.082,0,0,0-.643,2.252,5.965,5.965,0,0,0,.753,2.91,6.25,6.25,0,0,0,1.987,2.21,4.576,4.576,0,0,0,2.611.836,4.478,4.478,0,0,0,1.733-.356,4.982,4.982,0,0,0,1.506-.965,4.672,4.672,0,0,0,1.045-1.453A4.134,4.134,0,0,0,21.445-31.937Zm17.349-6.192h1.673v.114a1.044,1.044,0,0,0-.522.151,1.806,1.806,0,0,0-.469.53L36.75-33.208v5.117a1.383,1.383,0,0,0,.155.81.967.967,0,0,0,.693.2v.106H34.623v-.106a1.223,1.223,0,0,0,.606-.11q.25-.125.25-.64l-.015-.242v-4.716l-2.732-4.526a1.1,1.1,0,0,0-.961-.7v-.114H34.4v.114q-.371,0-.371.28a.75.75,0,0,0,.095.257l.095.189,2.248,3.709,2.46-3.739.038-.03a1.236,1.236,0,0,0,.2-.416q0-.25-.325-.25h-.045Zm17.273,6.018H52.812l-1.688,4.216a1.833,1.833,0,0,0-.076.2.809.809,0,0,0-.1.356q0,.25.371.25v.106H49.663v-.106a.825.825,0,0,0,.651-.25,2.819,2.819,0,0,0,.409-.757l4.042-10.2h.189l3.981,9.855a.235.235,0,0,0,.045.129l.061.167a2.859,2.859,0,0,0,.435.764.86.86,0,0,0,.7.3v.106h-2.6v-.106a.333.333,0,0,0,.288-.1.326.326,0,0,0,.068-.182,1.657,1.657,0,0,0-.174-.606.9.9,0,0,1-.038-.095.253.253,0,0,0-.038-.079Zm-3.149-.31H55.93l-1.506-3.8Zm22.306-5.563.53,1.393-.091.015a1.2,1.2,0,0,0-.114-.121,5.126,5.126,0,0,0-.587-.583,2.862,2.862,0,0,0-.806-.469,2.96,2.96,0,0,0-1.1-.189,2.715,2.715,0,0,0-1.347.318,2.124,2.124,0,0,0-.852.836,2.217,2.217,0,0,0-.284,1.079,1.777,1.777,0,0,0,.208.889,1.79,1.79,0,0,0,.541.6,3.915,3.915,0,0,0,.886.431q.553.2.848.3a11.149,11.149,0,0,1,1.5.579A3.581,3.581,0,0,1,75.807-31.9a2.7,2.7,0,0,1,.553,1.752,3.081,3.081,0,0,1-.492,1.737,3.178,3.178,0,0,1-1.226,1.116,3.736,3.736,0,0,1-1.01.223,9.737,9.737,0,0,1-1,.087H69.661v-3.24h.114A5.532,5.532,0,0,0,69.915-29a2.056,2.056,0,0,0,.465.878,2.161,2.161,0,0,0,.942.587,4.786,4.786,0,0,0,1.518.2,3.751,3.751,0,0,0,1.465-.25,2.364,2.364,0,0,0,.9-.628,2.072,2.072,0,0,0,.424-.746,2.434,2.434,0,0,0,.106-.67,1.759,1.759,0,0,0-.378-1.147,2.7,2.7,0,0,0-.92-.73,13.745,13.745,0,0,0-1.48-.59,11.839,11.839,0,0,1-1.344-.522,3.037,3.037,0,0,1-.7-.484,3.166,3.166,0,0,1-.666-.958A2.825,2.825,0,0,1,70-35.244a3.089,3.089,0,0,1,.382-1.518A2.868,2.868,0,0,1,71.5-37.875a3.416,3.416,0,0,1,1.726-.42,7.52,7.52,0,0,1,1.877.28.24.24,0,0,1,.068.015A.316.316,0,0,0,75.224-37.984Z" transform="translate(212.291 377.868)" fill="#777775"/>
    <path id="Trazado_7" data-name="Trazado 7" d="M2.953-24.063a3.935,3.935,0,0,1,.336-1.619A4.173,4.173,0,0,1,4.2-26.994a4.3,4.3,0,0,1,1.348-.881A4.221,4.221,0,0,1,7.193-28.2a4.166,4.166,0,0,1,1.632.323,4.309,4.309,0,0,1,1.344.881,4.173,4.173,0,0,1,.912,1.313,3.935,3.935,0,0,1,.336,1.619,3.956,3.956,0,0,1-.336,1.627,4.225,4.225,0,0,1-.912,1.317,4.27,4.27,0,0,1-1.344.886,4.166,4.166,0,0,1-1.632.323,4.221,4.221,0,0,1-1.645-.323A4.257,4.257,0,0,1,4.2-21.118a4.225,4.225,0,0,1-.912-1.317A3.956,3.956,0,0,1,2.953-24.063Zm.558.009A3.622,3.622,0,0,0,3.8-22.6a3.792,3.792,0,0,0,.79,1.178,3.669,3.669,0,0,0,1.165.79,3.563,3.563,0,0,0,1.427.288,3.563,3.563,0,0,0,1.427-.288,3.669,3.669,0,0,0,1.165-.79,3.792,3.792,0,0,0,.79-1.178,3.622,3.622,0,0,0,.292-1.453,3.622,3.622,0,0,0-.292-1.453,3.792,3.792,0,0,0-.79-1.178,3.669,3.669,0,0,0-1.165-.79,3.563,3.563,0,0,0-1.427-.288,3.563,3.563,0,0,0-1.427.288,3.669,3.669,0,0,0-1.165.79,3.792,3.792,0,0,0-.79,1.178A3.622,3.622,0,0,0,3.511-24.054Zm3.115,1.536a.839.839,0,0,0,.017.188.214.214,0,0,0,.079.122.452.452,0,0,0,.183.074,2.067,2.067,0,0,0,.332.035l-.017.244q-.209,0-.458,0t-.615,0q-.253,0-.515,0l-.393,0L5.221-22.1a1.519,1.519,0,0,0,.3-.039.417.417,0,0,0,.183-.092A.33.33,0,0,0,5.8-22.4a1.147,1.147,0,0,0,.026-.27v-2.967a.35.35,0,0,0-.113-.3,1.068,1.068,0,0,0-.506-.1l.017-.253q.148,0,.414,0t.519,0q.236,0,.48-.017t.506-.017a4.526,4.526,0,0,1,.576.039,2.072,2.072,0,0,1,.558.148,1.114,1.114,0,0,1,.423.314.813.813,0,0,1,.17.537,1.124,1.124,0,0,1-.27.759,1.613,1.613,0,0,1-.663.462q.14.262.275.51l.249.458q.113.209.205.366t.153.244a1.338,1.338,0,0,0,.148.183.51.51,0,0,0,.161.109.845.845,0,0,0,.209.057q.118.017.292.026l-.017.244q-.183,0-.476,0t-.571,0H8.275l-.087.009q-.044-.087-.127-.266t-.2-.414q-.118-.236-.27-.519t-.327-.58a.689.689,0,0,0-.127-.161.326.326,0,0,0-.205-.048H6.626Zm0-1.649h.3a1.05,1.05,0,0,0,.742-.266.988.988,0,0,0,.288-.763.661.661,0,0,0-.266-.58,1.115,1.115,0,0,0-.659-.188.414.414,0,0,0-.314.1.461.461,0,0,0-.087.314Z" transform="translate(301.484 333.507)" fill="#010002"/>
    <path id="Trazado_6" data-name="Trazado 6" d="M6.1-29.394H3.117L1.572-25.535a1.678,1.678,0,0,0-.069.187.74.74,0,0,0-.09.326q0,.229.34.229v.1H.234v-.1a.756.756,0,0,0,.6-.229,2.581,2.581,0,0,0,.374-.693l3.7-9.34h.173l3.645,9.021a.215.215,0,0,0,.042.118l.055.152a2.618,2.618,0,0,0,.4.7.788.788,0,0,0,.641.27v.1H7.475v-.1a.3.3,0,0,0,.263-.09A.3.3,0,0,0,7.8-25.05a1.517,1.517,0,0,0-.159-.554.822.822,0,0,1-.035-.087.231.231,0,0,0-.035-.073Zm-2.882-.284H5.972L4.593-33.157Zm7.2-5.224H13.15v.1q-.534.007-.658.211a1.417,1.417,0,0,0-.125.7v8.682q0,.714-.045,1.382a4.462,4.462,0,0,1-.121.9,2.634,2.634,0,0,1-.582,1,2.136,2.136,0,0,1-1.594.644,3.693,3.693,0,0,1-.371-.021,3.36,3.36,0,0,1-.426-.073q-.222-.052-.3-.076l-.146-.045.014-.118a2.037,2.037,0,0,0,.554.062,1.627,1.627,0,0,0,1.046-.326,1.808,1.808,0,0,0,.589-.866,5.516,5.516,0,0,0,.208-1.718v-9.4a1.575,1.575,0,0,0-.125-.752q-.125-.2-.651-.2Z" transform="translate(241.149 314.549)" fill="#211915"/>
    <path id="Trazado_1" data-name="Trazado 1" d="M373.716,270.426,359.3,286.686l14.56,15.447,14.116-15.447Z" transform="translate(-124.642 -0.528)" fill="none" stroke="#211915" stroke-miterlimit="10" stroke-width="1"/>
    <path id="Trazado_2" data-name="Trazado 2" d="M380.311,269.676,368.56,286.157l11.752,14.929,11.677-14.929Z" transform="translate(-131.162)" fill="none" stroke="#211915" stroke-miterlimit="10" stroke-width="1"/>
    <path id="Trazado_3" data-name="Trazado 3" d="M360.517,269.676l-20.054,16.075L360.369,301.6l20.1-15.447Z" transform="translate(-111.368)" fill="none" stroke="#211915" stroke-miterlimit="10" stroke-width="1"/>
  </g>
</svg>
